<svg width="256" height="256" viewBox="0 0 256 256" fill="none" xmlns="http://www.w3.org/2000/svg">
<path d="M232 170H222V72C222 66.1652 219.682 60.5694 215.556 56.4436C211.431 52.3178 205.835 50 200 50H56C50.1652 50 44.5694 52.3178 40.4436 56.4436C36.3178 60.5694 34 66.1652 34 72V170H24C22.4087 170 20.8826 170.632 19.7574 171.757C18.6321 172.883 18 174.409 18 176V192C18 197.835 20.3179 203.431 24.4437 207.556C28.5695 211.682 34.1652 214 40 214H216C221.835 214 227.431 211.682 231.556 207.556C235.682 203.431 238 197.835 238 192V176C238 174.409 237.368 172.883 236.243 171.757C235.117 170.632 233.591 170 232 170ZM46 72C46 69.3478 47.0536 66.8043 48.9289 64.9289C50.8043 63.0536 53.3478 62 56 62H200C202.652 62 205.196 63.0536 207.071 64.9289C208.946 66.8043 210 69.3478 210 72V170H46V72ZM226 192C226 194.652 224.946 197.196 223.071 199.071C221.196 200.946 218.652 202 216 202H40C37.3478 202 34.8043 200.946 32.9289 199.071C31.0536 197.196 30 194.652 30 192V182H226V192ZM150 88C150 89.5913 149.368 91.1174 148.243 92.2426C147.117 93.3679 145.591 94 144 94H112C110.409 94 108.883 93.3679 107.757 92.2426C106.632 91.1174 106 89.5913 106 88C106 86.4087 106.632 84.8826 107.757 83.7574C108.883 82.6321 110.409 82 112 82H144C145.591 82 147.117 82.6321 148.243 83.7574C149.368 84.8826 150 86.4087 150 88Z" fill="black"/>
</svg>
