<?xml version="1.0" encoding="utf-8"?>
<!-- Generator: Adobe Illustrator 27.8.0, SVG Export Plug-In . SVG Version: 6.00 Build 0)  -->
<svg version="1.1" id="Layer_1" xmlns="http://www.w3.org/2000/svg" xmlns:xlink="http://www.w3.org/1999/xlink" x="0px" y="0px"
	 viewBox="0 0 444.8 333" style="enable-background:new 0 0 444.8 333;" xml:space="preserve">
<style type="text/css">
	.st0{fill:#FFFFFF;}
</style>
<path class="st0" d="M408,334c-123,0-246,0-369.2-0.3c-4.6-2.2-9.2-3.5-13.3-5.9C11.8,319.6,3.2,308,3,291.5
	c-0.1-11.8,0-23.7,0-35.5c0-6.6,4.5-10.9,11.1-11c6.9,0,13.8,0,20.9,0c0-2.5,0-4.3,0-6.1c0-63.8,0-127.6,0-191.5
	c0-3.2,0.2-6.6,1-9.7C40.7,20.2,57,5,76.5,5C174,5,271.4,5,368.9,5c3.2,0,6.6,0.2,9.7,1c17.4,5,32.5,20.9,32.4,40.7
	c-0.1,64.2,0,128.3,0,192.5c0,1.8,0,3.6,0,5.7c7.4,0,14.3,0,21.3,0c6.2,0,10.7,4.6,10.7,10.9c0,11.3-0.5,22.7,0.1,34
	c1,17.6-14.6,38.6-33.2,42.2C409.2,332.2,408.6,333.3,408,334 M245.5,29c-54.3,0-108.6-0.1-163,0.1C67,29.2,59.1,37,59.1,52.6
	c-0.2,62.7-0.1,125.3-0.1,188c0,1.4,0.1,2.9,0.2,4.2c109.4,0,218.5,0,327.4,0c0.2-0.4,0.3-0.6,0.3-0.7c0-64.3,0.1-128.6,0-193
	c0-7.8-2.6-15.3-10.5-18.9c-4.1-1.9-8.9-3-13.5-3.1C324.1,28.9,285.3,29,245.5,29 M325.5,269c-99.4,0-198.8,0-299,0
	c0.5,8.4,0.4,16.4,1.6,24.1c1.5,9.3,8.9,15.8,22.9,15.8c114.6,0.1,229.3,0,343.9,0c0.7,0,1.3,0,2,0c10.1-0.4,19.2-6,20.6-14.4
	c1.4-8.3,1.4-16.9,2-25.6C387.8,269,357.1,269,325.5,269z"/>
<path d="M408.5,334c0.2-0.7,0.7-1.8,1.5-1.9c18.6-3.6,34.2-24.7,33.2-42.2c-0.7-11.3-0.1-22.7-0.1-34c0-6.2-4.6-10.8-10.7-10.9
	c-7,0-13.9,0-21.3,0c0-2.2,0-4,0-5.7c0-64.2-0.1-128.3,0-192.5c0-19.9-15.1-35.7-32.4-40.7c-3.1-0.9-6.4-1-9.7-1
	C271.4,5,174,5,76.5,5C57,5,40.7,20.2,36.1,37.7c-0.8,3.1-1,6.4-1,9.7C35,111.2,35,175,35,238.9c0,1.8,0,3.6,0,6.1
	c-7,0-13.9,0-20.9,0C7.5,245,3,249.4,3,256c0,11.8-0.1,23.7,0,35.5c0.2,16.6,8.8,28.1,22.5,36.3c4,2.4,8.7,3.8,12.8,5.9
	C25.3,334,12.7,334,0,334C0,223,0,112.1,0,1.1c148.2,0,296.5,0,444.8,0c0,110.9,0,221.9,0,332.9C432.9,334,420.9,334,408.5,334z"/>
<path d="M246,29c39.3,0,78.2-0.1,117,0.1c4.5,0,9.3,1.2,13.5,3.1c7.8,3.6,10.4,11,10.5,18.9c0.2,64.3,0.1,128.6,0,193
	c0,0.1-0.1,0.3-0.3,0.7c-108.9,0-218,0-327.4,0c-0.1-1.3-0.2-2.8-0.2-4.2c0-62.7-0.1-125.3,0.1-188C59.1,37,67,29.2,82.5,29.1
	C136.8,28.9,191.2,29,246,29 M260.2,69.8c-0.6-0.3-1.1-0.7-1.7-0.7c-23.3,0-46.6-0.1-69.9,0c-5.9,0-9.6,5.4-9.6,13
	c0.1,6,4.5,11,10.1,11c22.6,0.1,45.3,0.1,67.9-0.1c1.9,0,4-1.1,5.7-2.2C268.8,87,269.4,74.1,260.2,69.8z"/>
<path d="M326,269c31.1,0,61.8,0,93.5,0c-0.6,8.7-0.5,17.3-2,25.6c-1.4,8.4-10.5,14-20.6,14.4c-0.7,0-1.3,0-2,0
	c-114.6,0-229.3,0-343.9,0c-13.9,0-21.4-6.6-22.9-15.8c-1.3-7.7-1.1-15.7-1.6-24.1C126.7,269,226.1,269,326,269z"/>
<path class="st0" d="M260.6,69.9c8.8,4.2,8.2,17.1,2.1,20.9c-1.7,1.1-3.8,2.2-5.7,2.2c-22.6,0.1-45.3,0.1-67.9,0.1
	c-5.6,0-10-5-10.1-11c-0.1-7.5,3.7-12.9,9.6-13c23.3-0.1,46.6,0,69.9,0C259.1,69,259.6,69.5,260.6,69.9z"/>
</svg>
